HIERARCHY
ROOT Hips
{
 OFFSET 0.000000 0.000000 0.000000
 CHANNELS 6 Xposition Yposition Zposition Yrotation Xrotation Zrotation
 JOINT Chest
 {
  OFFSET 0.000000 10.080317 -0.001081
  CHANNELS 3 Yrotation Xrotation Zrotation
  JOINT Chest2
  {
   OFFSET 0.000000 11.096852 0.001963
   CHANNELS 3 Yrotation Xrotation Zrotation
   JOINT Chest3
   {
    OFFSET 0.000000 10.026525 0.000000
    CHANNELS 3 Yrotation Xrotation Zrotation
    JOINT Chest4
    {
     OFFSET 0.000000 10.026525 0.000000
     CHANNELS 3 Yrotation Xrotation Zrotation
     JOINT Neck
     {
      OFFSET 0.000000 14.108171 0.000000
      CHANNELS 3 Yrotation Xrotation Zrotation
      JOINT Head
      {
       OFFSET 0.000000 9.333493 0.004668
       CHANNELS 3 Yrotation Xrotation Zrotation
       End Site
       {
        OFFSET 0.000000 17.851786 0.002438
       }
      }
     }
     JOINT RightCollar
     {
      OFFSET -3.071622 7.873185 0.000000
      CHANNELS 3 Yrotation Xrotation Zrotation
      JOINT RightShoulder
      {
       OFFSET -14.378659 0.000000 0.000000
       CHANNELS 3 Yrotation Xrotation Zrotation
       JOINT RightElbow
       {
        OFFSET -30.778728 0.000000 0.000000
        CHANNELS 3 Yrotation Xrotation Zrotation
        JOINT RightWrist
        {
         OFFSET -25.164217 0.000000 0.000000
         CHANNELS 3 Yrotation Xrotation Zrotation
         End Site
         {
          OFFSET -18.796788 0.000000 0.000000
         }
        }
       }
      }
     }
     JOINT LeftCollar
     {
      OFFSET 3.071622 7.873185 0.000000
      CHANNELS 3 Yrotation Xrotation Zrotation
      JOINT LeftShoulder
      {
       OFFSET 14.378659 0.000000 0.000000
       CHANNELS 3 Yrotation Xrotation Zrotation
       JOINT LeftElbow
       {
        OFFSET 30.778728 0.000000 0.000000
        CHANNELS 3 Yrotation Xrotation Zrotation
        JOINT LeftWrist
        {
         OFFSET 25.164217 0.000000 0.000000
         CHANNELS 3 Yrotation Xrotation Zrotation
         End Site
         {
          OFFSET 18.796788 0.000000 0.000000
         }
        }
       }
      }
     }
    }
   }
  }
 }
 JOINT RightHip
 {
  OFFSET -8.194923 0.005295 0.000540
  CHANNELS 3 Yrotation Xrotation Zrotation
  JOINT RightKnee
  {
   OFFSET 0.000000 -42.473320 -0.000511
   CHANNELS 3 Yrotation Xrotation Zrotation
   JOINT RightAnkle
   {
    OFFSET 0.000000 -41.474259 -0.000865
    CHANNELS 3 Yrotation Xrotation Zrotation
    JOINT RightToe
    {
     OFFSET 0.000000 -7.354994 16.712725
     CHANNELS 3 Yrotation Xrotation Zrotation
     End Site
     {
      OFFSET 0.000000 -1.553903 6.764158
     }
    }
   }
  }
 }
 JOINT LeftHip
 {
  OFFSET 8.194923 0.005295 0.000540
  CHANNELS 3 Yrotation Xrotation Zrotation
  JOINT LeftKnee
  {
   OFFSET 0.000000 -42.473320 -0.000511
   CHANNELS 3 Yrotation Xrotation Zrotation
   JOINT LeftAnkle
   {
    OFFSET 0.000000 -41.474259 -0.000865
    CHANNELS 3 Yrotation Xrotation Zrotation
    JOINT LeftToe
    {
     OFFSET 0.000000 -7.354994 16.712725
     CHANNELS 3 Yrotation Xrotation Zrotation
     End Site
     {
      OFFSET 0.000000 -1.553903 6.764158
     }
    }
   }
  }
 }
}
MOTION
Frames: 12
Frame Time: 0.016667
44.024618 91.886489 -36.154610 -132.839760 -8.417241 7.820798 0.430268 0.713861 5.261205 0.135732 0.366812 2.326377 0.135732 0.366812 2.326377 0.100404 0.275631 1.744696 -1.628229 23.035316 2.796794 -3.674814 6.717144 5.469919 16.220378 -26.709024 -7.912340 39.099065 -57.186703 2.752834 10.099779 -35.814313 13.562528 -21.965124 -2.253161 -12.601233 -16.982098 -10.946426 -13.695921 -14.741562 -38.816638 -50.717717 -72.115680 2.007494 -59.521772 5.861690 13.154331 14.330710 4.963717 6.150111 -7.115157 -6.289838 23.691066 -4.842846 -10.649137 -17.104658 9.486709 -0.149465 -1.007969 -1.032548 -1.846249 -8.845986 10.724306 16.423655 40.995498 -2.585047 4.264447 3.813342 -8.014029 0.510171 -16.535018 -4.289746
43.749287 91.968960 -36.542531 -134.300648 -8.607564 7.793958 0.432580 0.774910 5.483064 0.135294 0.391361 2.431446 0.135294 0.391361 2.431446 0.099915 0.294065 1.823491 -1.324338 23.229518 2.575989 -3.061434 7.049550 4.985456 16.728289 -26.443814 -7.658870 38.726793 -58.296059 4.323192 8.355229 -48.790346 18.193516 -15.748428 -9.084089 -16.315111 -17.476586 -10.837794 -13.558228 -15.196263 -39.484874 -51.145582 -72.177571 2.003441 -59.292273 5.471654 12.960940 14.888930 5.474179 6.489721 -7.166974 -6.308818 23.752332 -4.791970 -9.658658 -16.875042 9.725046 -0.126901 -1.156417 -1.167509 -1.085908 -9.156233 9.972527 17.451266 39.108534 -1.375760 4.484297 2.700060 -7.648399 0.236545 -11.441925 -4.035296
43.475543 92.029968 -36.898271 -135.722121 -8.756011 7.692754 0.464957 0.904788 5.803682 0.149519 0.442102 2.569376 0.149519 0.442102 2.569376 0.110282 0.332212 1.926914 -1.024744 23.365959 2.306046 -2.446778 7.276600 4.417228 17.429483 -26.211718 -7.308279 38.730247 -59.937167 5.304503 10.235674 -56.934178 21.014118 -9.500100 -15.436369 -23.554686 -17.907194 -10.866262 -13.402148 -15.833137 -39.970150 -51.652916 -72.123483 1.824128 -58.791463 4.958337 12.623606 15.762261 5.937119 6.699924 -7.156303 -6.319452 23.927658 -4.785446 -8.607125 -16.706175 10.051992 -0.126085 -1.261082 -1.334439 -0.149697 -9.524161 9.215417 17.879288 36.905836 -0.406231 5.024624 1.835541 -7.331688 0.052115 -6.443828 -3.020609
43.222660 92.059329 -37.233035 -137.106938 -8.849379 7.543401 0.608466 1.072689 6.146706 0.216425 0.512021 2.706618 0.216425 0.512021 2.706618 0.160053 0.384983 2.029769 -0.788960 23.390028 2.053311 -1.956066 7.302231 3.900408 17.928469 -26.340183 -6.917053 39.044554 -62.013512 5.598212 11.918629 -62.317182 25.249066 -1.620990 -19.408449 -29.438033 -18.277587 -11.006143 -13.181851 -16.669115 -40.449331 -52.246676 -72.195001 1.691453 -58.329228 4.452437 12.332982 16.658894 6.416688 6.744846 -7.093244 -6.176396 24.297309 -4.788687 -7.749483 -16.593831 10.482668 -0.116705 -1.351704 -1.495308 0.773415 -10.031489 8.418803 17.613715 34.632618 0.215720 5.610640 1.042794 -7.108057 -0.053548 -2.518530 -2.064744
42.987051 92.053899 -37.517715 -138.494946 -8.883735 7.367117 0.860025 1.194733 6.545113 0.321316 0.573802 2.861085 0.321316 0.573802 2.861085 0.238305 0.431867 2.145495 -0.672049 23.399172 1.756475 -1.668137 7.305834 3.335704 18.122933 -26.229102 -6.745048 40.371409 -61.944163 4.996520 18.008140 -67.137977 25.887491 5.798207 -22.104136 -33.674110 -18.659920 -11.073584 -13.014506 -17.470936 -41.084879 -52.921882 -72.563965 1.747348 -58.125090 3.980639 12.136353 17.429431 7.108086 6.563462 -6.957660 -6.137482 24.954324 -4.887303 -6.976786 -16.539134 11.010049 -0.093391 -1.452787 -1.636389 1.786101 -10.727322 7.554249 16.583761 32.493792 0.524803 6.195808 0.225804 -7.029232 -0.081470 0.517103 -1.128728
42.749121 92.023424 -37.751872 -139.929353 -8.950053 7.248300 1.106330 1.402577 6.971570 0.418744 0.681705 3.028351 0.418744 0.681705 3.028351 0.310685 0.513369 2.270771 -0.600679 23.319447 1.379224 -1.443016 7.145865 2.639695 18.250826 -26.058823 -6.873081 43.234851 -61.646572 2.706810 27.002323 -70.494268 23.796478 12.034588 -22.519437 -36.323106 -18.876084 -11.210041 -12.862551 -18.156690 -41.826137 -53.582455 -73.138889 1.814734 -58.163867 3.543038 12.054487 17.956371 7.911866 6.322906 -6.857063 -6.120962 25.773819 -5.030606 -6.301318 -16.533046 11.568920 -0.052275 -1.532610 -1.722027 2.785198 -11.496841 6.490778 15.076311 30.515166 0.658265 6.511467 -0.643113 -7.080891 -0.047710 2.843715 -0.206274
42.504171 91.986685 -37.959491 -141.494616 -9.166137 7.261234 1.267972 1.799744 7.356417 0.469706 0.876505 3.178566 0.469706 0.876505 3.178566 0.347725 0.659843 2.383206 -0.404427 23.189717 0.991988 -0.990300 6.892741 1.892831 18.492063 -26.196833 -7.140453 46.137549 -62.931748 0.861276 36.573365 -69.430029 20.711709 17.592745 -23.027162 -36.814048 -18.943557 -11.319113 -12.702485 -18.853544 -42.524475 -53.878740 -73.826088 1.694450 -58.214800 3.119791 12.019318 18.195008 8.927504 6.214266 -6.796276 -6.066818 26.678818 -5.182541 -5.779216 -16.565684 12.067068 0.015633 -1.593918 -1.712057 3.827007 -12.055340 5.255838 13.532932 28.589385 0.708859 6.637817 -1.490561 -7.247799 0.037594 4.605769 0.687158
42.264282 91.942619 -38.145973 -143.190687 -9.466234 7.435969 1.325523 2.288838 7.654751 0.472262 1.112533 3.291846 0.472262 1.112533 3.291846 0.348204 0.836972 2.467949 0.000266 23.061561 0.679191 -0.180221 6.645167 1.223260 18.720476 -26.432029 -7.483715 50.001866 -62.887081 -2.170189 45.487636 -67.379969 17.022486 23.425454 -21.897370 -38.168451 -18.928333 -11.365887 -12.531010 -19.512196 -43.009647 -53.850471 -74.557973 1.384706 -58.158304 2.785291 12.039518 18.184407 10.041569 6.214315 -6.802672 -5.919027 27.575123 -5.362544 -5.412656 -16.649755 12.502945 0.098489 -1.596080 -1.619717 4.816459 -12.456674 3.856396 12.306375 26.696918 0.781036 6.355481 -2.314615 -7.435186 0.137883 5.935109 1.479871
42.035032 91.889193 -38.313805 -145.011368 -9.757867 7.665284 1.270792 2.788196 7.887231 0.429577 1.341531 3.381403 0.429577 1.341531 3.381403 0.314756 1.008562 2.534995 0.660175 23.016933 0.505273 1.054527 6.558597 0.734175 18.941036 -26.704197 -8.047187 53.722019 -61.252147 -4.491819 54.034196 -63.308475 11.121923 27.389403 -20.419547 -38.303659 -18.899205 -11.196047 -12.340642 -19.943317 -43.437101 -53.672337 -75.317778 1.072794 -58.129362 2.592095 12.078174 18.105515 11.068202 6.210889 -6.849636 -5.585664 28.425248 -5.545387 -5.033857 -16.806410 12.849872 0.168255 -1.527834 -1.475558 5.674815 -12.765096 2.475957 11.471434 24.835666 0.883104 6.051535 -3.126831 -7.638889 0.241200 6.954459 2.133387
41.803765 91.813990 -38.446485 -146.976050 -9.796872 7.847913 1.181169 3.192542 8.084093 0.386844 1.514808 3.475893 0.386844 1.514808 3.475893 0.281510 1.138350 2.605810 1.481993 23.005998 0.368957 2.571392 6.543929 0.269390 18.788006 -26.836136 -8.948108 56.793587 -58.487320 -6.686611 59.058780 -57.947359 6.707609 29.905393 -18.033609 -40.063266 -18.924594 -11.053765 -12.195037 -19.970899 -43.662501 -53.494534 -76.098226 0.837219 -58.196654 2.579791 12.161332 18.023981 12.017163 5.932774 -6.966014 -5.127002 29.226204 -5.686759 -4.514039 -17.028284 13.137650 0.232243 -2.642396 -2.388693 6.339007 -13.276972 1.181458 10.925524 23.003853 1.037735 5.829046 -3.912112 -7.738671 0.318927 7.759966 2.541469
41.537791 91.733206 -38.551411 -149.200358 -9.577396 7.918479 1.130191 3.508632 8.287245 0.371220 1.639757 3.588874 0.371220 1.639757 3.588874 0.268775 1.232049 2.690477 2.341043 23.014582 0.230054 4.155939 6.577119 -0.209260 18.454500 -26.967693 -9.800637 58.921592 -54.779819 -8.446733 60.953016 -51.234083 3.705657 31.890927 -14.986539 -43.337135 -19.020055 -10.861905 -12.156849 -19.765025 -43.761850 -53.222172 -76.826282 0.728139 -58.320960 2.702874 12.272177 17.977369 13.101934 5.362078 -7.108947 -4.575496 30.008258 -5.734706 -3.858552 -17.234881 13.417920 0.288894 -3.552292 -3.189828 7.026063 -13.896590 0.002535 10.401051 21.072578 1.270859 5.793081 -4.571607 -7.754403 0.369559 8.334839 2.723522
41.230657 91.665337 -38.638599 -151.893120 -9.207552 7.945386 1.146300 3.850304 8.508807 0.375119 1.791140 3.706113 0.375119 1.791140 3.706113 0.270463 1.345689 2.778260 3.226550 23.020024 0.076300 5.791979 6.617642 -0.720836 18.295643 -27.121351 -10.820987 59.550220 -51.357476 -9.285463 61.017529 -44.974164 2.274756 32.881649 -12.114243 -46.348088 -18.973977 -10.798069 -12.183161 -19.431100 -43.715707 -52.920436 -77.325394 0.716954 -58.380106 2.891926 12.365110 17.906676 14.409319 4.577238 -7.315570 -3.992726 30.791163 -5.748953 -2.936647 -17.353544 13.698604 0.333404 -4.358209 -3.920163 7.786239 -14.414433 -1.045545 9.657005 18.914054 1.487412 6.034129 -4.984767 -7.731410 0.384683 8.661940 2.733774
